<?xml version="1.0" encoding="UTF-8"?>
<svg version="1.1" xmlns="http://www.w3.org/2000/svg" width="1266" height="165">
<path d="M0 0 C-0.50610557 5.62931463 -2.72526699 9.55500353 -5.4375 14.375 C-16.22971682 34.31184137 -23.41239237 55.39149041 -30 77 C-27.92927024 76.86838742 -25.85904493 76.72882327 -23.7890625 76.5859375 C-22.05970459 76.47064697 -22.05970459 76.47064697 -20.29541016 76.35302734 C-15.59716894 75.84971894 -10.85766617 74.9529311 -7.4765625 71.3984375 C-6 70 -6 70 -3 70 C-3.28288477 73.39461728 -3.74132059 74.74132059 -6.1875 77.1875 C-11.98973609 80.92671882 -17.18734212 81.27235517 -23.875 81.125 C-24.65875 81.11597656 -25.4425 81.10695313 -26.25 81.09765625 C-28.16680055 81.07428063 -30.08344191 81.03841653 -32 81 C-32.185625 82.8253125 -32.185625 82.8253125 -32.375 84.6875 C-32.80578191 88.65194222 -33.41071565 92.56618101 -34.0625 96.5 C-35.74315854 105.99253377 -35.74315854 105.99253377 -33.5 115.0625 C-33.005 115.701875 -32.51 116.34125 -32 117 C-23.79682679 117 -19.15928163 113.10104264 -13 108 C-12.04996094 107.21496094 -11.09992188 106.42992188 -10.12109375 105.62109375 C-1.35889392 97.97896207 5.85398715 89.14075214 13 80 C13.57218262 79.28183105 14.14436523 78.56366211 14.73388672 77.82373047 C15.28061035 77.1226416 15.82733398 76.42155273 16.390625 75.69921875 C16.88336914 75.07233154 17.37611328 74.44544434 17.88378906 73.79956055 C19.5109234 71.17628688 19.44881237 68.99208245 19 66 C20.31097656 65.84337891 20.31097656 65.84337891 21.6484375 65.68359375 C26.95521903 63.01783286 28.25269865 58.31749109 30.625 53.0625 C38.40526528 36.73309617 46.9417075 21.67541047 60 9 C60.7321875 8.28199219 61.464375 7.56398438 62.21875 6.82421875 C68.66857685 0.83332188 74.54629525 -1.59473231 83.40234375 -1.36328125 C87.25515595 -0.82446691 89.11846161 0.42178144 92 3 C94.08507766 7.17015532 93.61455242 11.94573769 92.3046875 16.32421875 C84.99722852 32.6983398 68.71009221 45.5966321 55.04296875 56.55859375 C52.63369861 58.49157685 50.24449213 60.443022 47.86328125 62.41015625 C46.78203979 63.29973022 46.78203979 63.29973022 45.67895508 64.20727539 C44.24802699 65.38456446 42.8193994 66.56465636 41.39331055 67.74780273 C40.73758057 68.28477783 40.08185059 68.82175293 39.40625 69.375 C38.82166016 69.85710937 38.23707031 70.33921875 37.63476562 70.8359375 C36 72 36 72 33 73 C32.89816406 73.66902344 32.79632813 74.33804688 32.69140625 75.02734375 C31.67251979 79.40797988 29.8450328 83.43800103 28.08398438 87.56054688 C26.65726016 90.99781223 26 93.21430133 26 97 C27.81527107 95.04417252 29.62728891 93.08550123 31.4375 91.125 C32.2119043 90.29162109 32.2119043 90.29162109 33.00195312 89.44140625 C35.82104736 86.45250685 35.82104736 86.45250685 38 83 C38.66 83 39.32 83 40 83 C40 82.34 40 81.68 40 81 C40.66 81 41.32 81 42 81 C42 80.34 42 79.68 42 79 C49.72505126 71.01600848 60.54258816 60.63652288 72 60 C75 62 75 62 75.72900391 63.89160156 C76.58762802 70.57185188 72.79650735 76.67358872 69.625 82.25 C64.27997669 92.03800054 59.60769073 101.54197942 61 113 C61.80943091 115.09843966 61.80943091 115.09843966 63.625 115.875 C69.63992621 116.19157506 75.55873607 110.1374151 79.875 106.375 C80.48432373 105.84575928 81.09364746 105.31651855 81.72143555 104.77124023 C93.55321656 94.33916972 105.13214695 80.90331721 110.25390625 65.76953125 C111 64 111 64 113 62 C117.33643601 61.68462284 119.32653229 61.55102153 123 64 C122.3227011 68.1143381 121.03379361 71.74251954 119.49609375 75.61328125 C119.2533522 76.22769577 119.01061066 76.84211029 118.76051331 77.47514343 C117.9901095 79.42251559 117.21390549 81.36751397 116.4375 83.3125 C115.91172353 84.63851895 115.38632887 85.96468936 114.86132812 87.29101562 C113.5786321 90.52910808 112.29072651 93.76509885 111 97 C111.76892578 96.23107422 112.53785156 95.46214844 113.33007812 94.66992188 C127 81 127 81 129.64453125 78.3671875 C131.00196761 77.00299773 132.3494755 75.62842652 133.66796875 74.2265625 C139.85761752 67.70276816 147.51010808 61.08164865 156.625 59.5625 C159 60 159 60 160.9375 61.9375 C163.62945598 69.69666723 158.55401285 77.55585354 155.2421875 84.47265625 C154.83226562 85.30667969 154.42234375 86.14070313 154 87 C154.46148437 86.64808594 154.92296875 86.29617187 155.3984375 85.93359375 C157.58907766 84.27546098 159.79267068 82.63585247 162 81 C162.81726563 80.38898438 163.63453125 79.77796875 164.4765625 79.1484375 C172.51154312 73.30255377 179.09137963 70.66516202 189 70 C190.02101022 73.17775092 190.22768205 74.53190833 188.7421875 77.5859375 C188.12601562 78.50632812 187.50984375 79.42671875 186.875 80.375 C181.47332645 89.12571116 177.19269522 99.59445837 177 110 C177.8043195 112.89765372 177.8043195 112.89765372 179 115 C189.8468612 115 196.36063451 106.78791955 203.625 99.625 C207.38179993 95.86441406 210.84771364 92.05655268 214.0625 87.8125 C223.95401317 75.04458447 241.88847573 62.07922954 258 59 C265.66925286 58.38927849 271.61408952 58.74593738 277.9375 63.4375 C279 65 279 65 279 69 C277.8553125 68.5359375 277.8553125 68.5359375 276.6875 68.0625 C268.64094107 64.88130228 261.86171849 65.72610887 254 69 C238.70949967 77.17121332 224.06552238 88.40395928 217.54296875 105.0625 C216.53952841 108.64312165 216.32719489 111.65438978 218 115 C233.66693422 113.32549393 245.95911797 96.25240585 256.01147461 85.52929688 C258.14022591 83.26786947 260.29602871 81.03525234 262.45703125 78.8046875 C263.09679398 78.10592499 263.7365567 77.40716248 264.39570618 76.68722534 C268.84506367 72.14004034 268.84506367 72.14004034 272.17807007 71.73590088 C275.55078266 72.06845861 277.58168098 72.58168098 280 75 C279.62593064 78.89210265 277.40914617 82.27518855 275.625 85.6875 C270.58981678 95.62971212 268.48656748 102.76153257 269 114 C271.23607624 115.25399253 271.23607624 115.25399253 274 116 C280.61546627 113.69052238 285.76632176 108.61636102 290.40625 103.5390625 C292 102 292 102 294 102 C294 101.34 294 100.68 294 100 C294.66 100 295.32 100 296 100 C296.24363281 99.44957031 296.48726562 98.89914063 296.73828125 98.33203125 C305.98687567 81.23787996 325.34747462 67.091646 343.23828125 60.12890625 C351.04510229 57.86039112 358.36840247 58.64606784 366 61 C366.44988281 60.07703125 366.89976562 59.1540625 367.36328125 58.203125 C391.75375718 8.55639201 391.75375718 8.55639201 410.6875 -0.25 C416.898491 -1.65626211 422.66502198 -2.02411316 428.5625 0.5625 C431.71618198 3.71618198 432.49046403 5.55975794 433 10 C430.78814735 28.22994687 409.24910747 45.25990333 395.890625 55.75 C394.93671875 56.4925 393.9828125 57.235 393 58 C390.22053514 60.23940607 387.45469324 62.49545975 384.6875 64.75 C384.01710693 65.29366211 383.34671387 65.83732422 382.65600586 66.39746094 C381.36787251 67.44211057 380.08380739 68.49179998 378.80419922 69.546875 C377.66456064 70.46475441 376.50138371 71.35477636 375.30908203 72.203125 C370.68570263 75.60634614 369.24398843 79.24586307 367.5 84.5 C367.21374756 85.32661133 366.92749512 86.15322266 366.63256836 87.00488281 C365.72824373 89.66181897 364.86108433 92.32876352 364 95 C363.70496582 95.89009766 363.40993164 96.78019531 363.10595703 97.69726562 C356.83014739 115.93677079 356.83014739 115.93677079 359.53515625 134.41015625 C360.26025391 135.69212891 360.26025391 135.69212891 361 137 C366.3086849 136.41825155 366.3086849 136.41825155 371 134 C371.99 134 372.98 134 374 134 C373.69970967 136.80270978 372.97786628 138.02582268 371.125 140.1875 C366.56579902 142.83183657 362.22527047 143.19949638 357 143 C352.72352685 141.54905375 350.30842147 139.88786774 348 136 C342.96218707 120.88656122 349.85644475 102.19949562 355 88 C354.59797363 88.43755615 354.19594727 88.8751123 353.78173828 89.32592773 C325.46617571 120.06103695 325.46617571 120.06103695 313.1875 120.6875 C308.86362503 120.26603926 305.2346718 118.93430942 302 116 C299.76551493 113.12779685 297.8325855 110.14157514 296 107 C295.3709375 107.59167969 294.741875 108.18335937 294.09375 108.79296875 C284.92286262 117.25946568 278.34228171 122.42722847 265.63671875 122.359375 C263 122 263 122 259.875 119.625 C255.26024586 113.16434421 256.39646337 104.27093236 257.5 96.625 C257.665 95.75875 257.83 94.8925 258 94 C257.11248047 94.99580078 257.11248047 94.99580078 256.20703125 96.01171875 C247.8671294 105.33118493 247.8671294 105.33118493 244 109 C243.12794922 109.84691406 243.12794922 109.84691406 242.23828125 110.7109375 C236.42040946 116.12875916 230.50724208 120.07198726 222.375 120.5 C217.6026055 120.25013641 214.82857548 118.85266409 211 116 C207.78935916 112.13076617 206.79078497 109.94584327 207 105 C206.53851563 105.4125 206.07703125 105.825 205.6015625 106.25 C201.74439548 109.66504115 197.84154855 113.02507264 193.875 116.3125 C192.69550781 117.29669922 192.69550781 117.29669922 191.4921875 118.30078125 C185.52244589 122.37105962 179.02279627 122.86714405 172 122 C167.81905742 119.69621531 166.41848598 117.46443131 165 113 C164.47588655 102.59836386 167.40707483 93.57708771 171 84 C171.33 83.01 171.66 82.02 172 81 C162.28293539 86.81551594 153.91414163 94.37932594 146.6875 103.0625 C143.37299957 106.9537374 141.04063773 108.264907 136 109 C135.34 108.34 134.68 107.68 134 107 C134.33319621 102.28418844 135.93723293 98.53090506 137.94140625 94.2890625 C138.22853989 93.67606293 138.51567352 93.06306335 138.81150818 92.43148804 C139.7216018 90.49265145 140.6418423 88.55883897 141.5625 86.625 C142.18492411 85.30370521 142.80667579 83.98209344 143.42773438 82.66015625 C144.94406488 79.43640214 146.46952815 76.21706897 148 73 C131.41961244 80.77309406 121.14148084 96.15222388 110.69140625 110.66015625 C106.19148837 116.88521586 102.83501824 121.33466211 95 123 C93.68 123 92.36 123 91 123 C91.6509039 119.35204526 92.61798056 115.97430919 93.84765625 112.48046875 C94.20537109 111.45888672 94.56308594 110.43730469 94.93164062 109.38476562 C95.49141602 107.80211914 95.49141602 107.80211914 96.0625 106.1875 C96.43955078 105.11306641 96.81660156 104.03863281 97.20507812 102.93164062 C98.13374658 100.28669882 99.06548189 97.64287946 100 95 C99.67 94.67 99.34 94.34 99 94 C98.43345703 94.78310547 98.43345703 94.78310547 97.85546875 95.58203125 C89.86356781 106.26909316 80.04388532 117.65203823 67 122 C56.41638564 123.05534616 56.41638564 123.05534616 51.8125 119.625 C49.24965727 115.91329673 48.81940534 113.9882117 48.75 109.5 C48.71132813 108.03046875 48.71132813 108.03046875 48.671875 106.53125 C49.4632599 98.0144411 52.95446087 90.47206209 56.6875 82.875 C57.10322266 82.01390625 57.51894531 81.1528125 57.94726562 80.265625 C58.95831405 78.17380067 59.97589795 76.08545586 61 74 C47.61935369 78.93093022 39.2199214 90.98965649 31 102 C30.5889502 102.54978516 30.17790039 103.09957031 29.75439453 103.66601562 C28.56536767 105.25646405 27.37643264 106.84698113 26.1875 108.4375 C25.45015625 109.41460937 24.7128125 110.39171875 23.953125 111.3984375 C22.81855788 112.9096809 21.69675383 114.43101843 20.609375 115.9765625 C17.5236464 120.15258187 13.9565254 121.8766523 9 123 C7.68 123 6.36 123 5 123 C6.56974487 114.46096614 9.58972314 106.53571818 12.625 98.4375 C13.14636926 97.03340201 13.66720694 95.62910651 14.1875 94.22460938 C15.4522133 90.81410757 16.72409774 87.40633417 18 84 C14.6181599 87.36531416 11.3284316 90.77644371 8.125 94.3125 C7.25101563 95.27542969 6.37703125 96.23835938 5.4765625 97.23046875 C3.44639745 99.50079528 1.46633507 101.79987868 -0.5 104.125 C-9.29514403 114.15599565 -18.77545172 122.26967512 -32.5 123.25 C-37.12594647 122.91957525 -39.50321697 121.55221944 -42.6875 118.25 C-49.12496891 107.21433901 -45.48164316 93.72672831 -43 82 C-42.67 81.34 -42.34 80.68 -42 80 C-56.07674822 77.59150397 -56.07674822 77.59150397 -69.24609375 80.99609375 C-71.47330564 83.87716601 -73.20357745 86.83505812 -75 90 C-76.7328843 92.11906618 -78.60504488 94.08844994 -80.5 96.0625 C-83.61212327 99.28082484 -83.61212327 99.28082484 -86 103 C-86.66 103 -87.32 103 -88 103 C-88.2371875 103.56203125 -88.474375 104.1240625 -88.71875 104.703125 C-93.3366846 112.98161751 -102.51726224 119.40305721 -110 125 C-111.05767578 125.81791016 -111.05767578 125.81791016 -112.13671875 126.65234375 C-123.51365251 134.91691855 -137.1517363 138.01436326 -151 137 C-158.24777677 135.57405896 -163.15719097 132.87827004 -167.6953125 127.015625 C-170.62854926 122.48403767 -171.47566137 118.35119043 -171 113 C-170.34 112.01 -169.68 111.02 -169 110 C-168.01 110.33 -167.02 110.66 -166 111 C-165.15625 113.3984375 -165.15625 113.3984375 -164.5 116.375 C-163.42042156 121.39976233 -163.42042156 121.39976233 -160 125 C-151.54966573 129.33462742 -140.59575261 127.6619118 -131.8125 125 C-113.19207749 118.83710683 -97.37283302 102.69306584 -84.80859375 88.09765625 C-82.75019642 85.71027101 -80.65877914 83.35416937 -78.5625 81 C-77.88316406 80.236875 -77.20382813 79.47375 -76.50390625 78.6875 C-76.00761719 78.130625 -75.51132813 77.57375 -75 77 C-104.77870232 71.85323107 -104.77870232 71.85323107 -133.4375 78.8125 C-137.93716436 82.65367689 -141.10082894 85.60544893 -141.8125 91.625 C-141.99450485 94.42885846 -142 97.18580682 -142 100 C-143.65 99.67 -145.3 99.34 -147 99 C-149.28039416 89.93104783 -149.54041237 81.71616301 -145.375 73.125 C-141.03331548 67.41225721 -135.5374183 64.52980292 -128.51171875 63.27734375 C-108.32017495 61.04779537 -87.64293601 65.97527947 -68 70 C-67.45472656 69.33355469 -66.90945312 68.66710937 -66.34765625 67.98046875 C-59.3984375 59.48697917 -52.44921875 50.99348958 -45.5 42.5 C-44.75105469 41.58347656 -44.00210938 40.66695312 -43.23046875 39.72265625 C-41.80014684 37.97671164 -40.36561715 36.23420074 -38.92578125 34.49609375 C-33.46896003 27.88940632 -28.19602465 21.15167898 -22.96020508 14.36889648 C-21.31424299 12.2400195 -19.65764354 10.11978389 -18 8 C-17.5469751 7.40324463 -17.0939502 6.80648926 -16.62719727 6.19165039 C-14.17388084 3.05972683 -12.28035347 1.19196476 -8.4375 0.0625 C-7.69371094 -0.17339844 -6.94992188 -0.40929688 -6.18359375 -0.65234375 C-3.79983765 -1.03186842 -2.2747129 -0.74792147 0 0 Z M66.5625 16.9375 C57.29512353 26.27463668 50.87717097 37.2379602 44.4375 48.625 C44.00735596 49.38321045 43.57721191 50.1414209 43.1340332 50.92260742 C41.11270281 54.59158724 39.47681165 57.76725097 39 62 C41.68309888 60.02140194 44.34245992 58.01275986 47 56 C47.72445312 55.46632812 48.44890625 54.93265625 49.1953125 54.3828125 C63.70334099 43.31736704 78.55370679 28.94031706 86 12 C86.25144312 8.24926796 86.25144312 8.24926796 86 5 C77.92354949 5 72.08816587 11.55070241 66.5625 16.9375 Z M403.66796875 19.3203125 C394.73409882 28.80179267 388.48614661 39.83585454 382.375 51.25 C381.92455322 52.0845874 381.47410645 52.9191748 381.01000977 53.77905273 C380.39790649 54.94803101 380.39790649 54.94803101 379.7734375 56.140625 C379.40653809 56.83704102 379.03963867 57.53345703 378.66162109 58.25097656 C378.33411865 59.11674316 378.33411865 59.11674316 378 60 C378.33 60.66 378.66 61.32 379 62 C381.66842411 59.814637 384.33440075 57.62630737 387 55.4375 C387.74378906 54.82841797 388.48757813 54.21933594 389.25390625 53.59179688 C403.30275796 42.04730569 420.66565758 27.33690393 425.8125 9.125 C426.1917596 6.94677136 426.1917596 6.94677136 425 5 C416.1301001 5 409.59508743 13.42297834 403.66796875 19.3203125 Z M-26 27 C-33.37880075 36.42590782 -40.7013211 45.88512846 -47.85351562 55.484375 C-51.78793331 60.75167705 -55.83901203 65.90890883 -60 71 C-59.67 71.66 -59.34 72.32 -59 73 C-56.39550451 73.69755205 -56.39550451 73.69755205 -53.3125 74.125 C-52.27738281 74.29257813 -51.24226563 74.46015625 -50.17578125 74.6328125 C-47.08398337 74.99028975 -44.10906723 75.06525778 -41 75 C-38.41885624 68.35475721 -36.25655183 61.61355435 -34.125 54.8125 C-31.59769008 46.79367912 -28.98047469 38.91211723 -25.71484375 31.16015625 C-24.71332136 28.98538261 -24.71332136 28.98538261 -26 27 Z M317 89 C309.6357416 98.4560649 309.6357416 98.4560649 306.9375 109.625 C306.94652344 110.44226563 306.95554687 111.25953125 306.96484375 112.1015625 C306.97644531 112.72804687 306.98804688 113.35453125 307 114 C308.73662828 115.21353073 308.73662828 115.21353073 311 116 C317.9112352 114.19337887 323.25718769 109.30742314 328.30175781 104.49414062 C330.82962028 102.15749178 333.42542652 100.00983618 336.12109375 97.87109375 C342.11426387 92.99664201 347.64772466 87.7546646 353.125 82.3125 C354.06859375 81.40177734 355.0121875 80.49105469 355.984375 79.55273438 C357.32628906 78.22145508 357.32628906 78.22145508 358.6953125 76.86328125 C359.49984863 76.07219971 360.30438477 75.28111816 361.13330078 74.46606445 C363.30051036 71.60300089 363.69680083 69.53935347 364 66 C348.80458027 58.40229013 326.34911668 78.3012733 317 89 Z M101 90 C102 92 102 92 102 92 Z M23 99 C24 101 24 101 24 101 Z M109 99 C110 101 110 101 110 101 Z " fill="#FFFFFF" transform="translate(225,11)"/>
<path d="M0 0 C2.4375 1.875 2.4375 1.875 4 4 C4 5.32 4 6.64 4 8 C3.43152344 7.7834375 2.86304688 7.566875 2.27734375 7.34375 C-6.77647191 4.078935 -12.68675896 4.75428462 -21.59375 8.390625 C-36.76018921 15.55641967 -49.99749704 27.33434125 -57.2421875 42.62109375 C-58.00382301 45.01200108 -58.20957876 46.81742653 -58.125 49.3125 C-58.063125 51.1378125 -58.063125 51.1378125 -58 53 C-55.01034049 53.91291389 -53.49284665 54.20456295 -50.5625 52.98828125 C-42.57060212 47.76187242 -35.79981114 41.65453991 -29 35 C-28.35885254 34.37399902 -27.71770508 33.74799805 -27.05712891 33.10302734 C-25.05206807 31.13797989 -23.0550268 29.16525275 -21.0625 27.1875 C-20.44793945 26.57777344 -19.83337891 25.96804687 -19.20019531 25.33984375 C-15.72987056 21.85626625 -12.46682771 18.28427772 -9.35717773 14.47387695 C-7.47144962 12.42600133 -5.86965662 11.05166277 -3.02734375 10.8828125 C-2.33769531 10.96273437 -1.64804687 11.04265625 -0.9375 11.125 C-0.24527344 11.18945312 0.44695312 11.25390625 1.16015625 11.3203125 C3 12 3 12 4.47265625 13.58984375 C5.31579015 17.44327793 3.21677584 20.16633836 1.375 23.4375 C-3.58635928 32.80622328 -8.53768081 42.21485655 -6 53 C-3.95976672 54.5048792 -3.95976672 54.5048792 -1 55 C6.00872538 52.35813012 11.6737277 46.03474556 17 41 C17.91265625 40.18660156 18.8253125 39.37320313 19.765625 38.53515625 C25.97323841 32.76970525 29.91953019 27.16054222 33.85424805 19.72607422 C40.53776799 7.15407734 40.53776799 7.15407734 47 5 C53.47933884 4.65289256 53.47933884 4.65289256 57 7 C56.42588695 10.36473848 55.46636808 11.81013686 52.9375 14.0625 C42.54337875 24.09378745 35.32128427 36.33775425 35 51 C35 51.66 35 52.32 35 53 C41.14653051 53.43133547 44.96820725 52.73882673 50 49 C50.65355469 48.52175781 51.30710937 48.04351562 51.98046875 47.55078125 C63.8355515 37.9414701 72.35775348 24.01595249 80 11 C81.48913592 8.55576763 82.99445917 6.12165177 84.5 3.6875 C85.1703125 2.59824219 85.840625 1.50898437 86.53125 0.38671875 C87.25828125 -0.79470703 87.25828125 -0.79470703 88 -2 C89.43836751 -1.88541307 90.87570966 -1.75790884 92.3125 -1.625 C93.51326172 -1.52058594 93.51326172 -1.52058594 94.73828125 -1.4140625 C97 -1 97 -1 100 1 C99.35630557 4.25121018 98.17447844 6.63526242 96.453125 9.45703125 C88.09246003 23.4295236 80.58622616 36.1289655 82 53 C85.32030124 54.75320915 85.32030124 54.75320915 88.88671875 54.41796875 C94.72121674 50.43127272 99.87951641 45.86218027 105 41 C105.88945313 40.175 106.77890625 39.35 107.6953125 38.5 C114.66357563 31.8295259 120.18022039 24.58638807 125.75390625 16.75097656 C135.76544471 2.68303891 135.76544471 2.68303891 143 1 C150.53384016 0.48353435 157.0868117 2.3441712 164.31054688 4.31054688 C169.65026268 5.68516552 173.6125176 6.34511914 179 5 C179.825 4.484375 180.65 3.96875 181.5 3.4375 C184.77586585 1.55387713 187.28686137 1.78158008 191 2 C191.875 4.0625 191.875 4.0625 192 7 C189.84469447 10.58704421 187.20381378 13.32092556 183.5625 15.375 C181 16 181 16 177.8125 16.0625 C172.76429336 17.30386229 170.37387696 19.92380267 166.671875 23.46875 C164.04252226 25.95971576 161.32432081 28.23416071 158.5 30.5 C153.99223099 34.14702104 149.66024979 37.94136692 145.38671875 41.859375 C142.64841891 44.31532968 139.83670572 46.65859211 137 49 C139.20452542 50.29855607 141.41323296 51.58888195 143.625 52.875 C144.24246094 53.23980469 144.85992188 53.60460937 145.49609375 53.98046875 C152.15257984 57.83422386 158.24746192 60.02216684 166 59 C180.54073838 54.70124996 193.11454428 38.86605194 202.046875 27.41015625 C210.20155376 17.34728266 220.02269464 10.60142297 231.125 4.1875 C231.78185791 3.80207031 232.43871582 3.41664062 233.11547852 3.01953125 C241.18987575 -1.53044756 250.12642984 -3.59336567 259.30859375 -1.46484375 C263.27855047 -0.13181241 266.09157013 1.18314027 268 5 C268 5.99 268 6.98 268 8 C265.74202176 7.49822706 263.79756729 6.90699038 261.6875 5.9375 C253.26670143 3.00001213 245.659179 6.76084972 238.08203125 10.40234375 C223.92574092 18.05085464 211.84908928 29.98924887 205.578125 44.94921875 C204.75774132 47.85936356 205.12118855 50.1438628 206 53 C208.55187051 53.96714727 209.6550569 54.13918757 212.2265625 53.1015625 C217.78371649 49.68038301 222.62558113 45.91056998 227.3828125 41.44140625 C229.49264388 39.47327996 231.63599831 37.59599588 233.828125 35.72265625 C238.06244394 32.03436509 241.84634651 28.0221114 245.625 23.875 C254.23390503 14.43695863 254.23390503 14.43695863 259 11 C262.45923624 11.11530787 264.9090909 11.45454545 268 13 C267.45111751 17.89543846 265.9445314 21.42412287 263.625 25.75 C259.22040418 34.25538775 255.90844613 42.25998081 257 52 C257.33 52.66 257.66 53.32 258 54 C260.71039979 54.89278371 262.31225563 55.2726799 265 54.20703125 C269.82009742 50.84614301 274.22902804 47.14537923 278.5625 43.1875 C279.08005859 42.71481689 279.59761719 42.24213379 280.13085938 41.75512695 C281.78844417 40.20204883 283.39645014 38.60879394 285 37 C285.67039307 36.35417969 286.34078613 35.70835938 287.03149414 35.04296875 C292.75695823 29.16783237 295.08517696 23.43732364 297.3125 15.625 C297.94642842 13.48979643 298.58802486 11.35685031 299.23828125 9.2265625 C299.50680908 8.29408691 299.77533691 7.36161133 300.05200195 6.40087891 C301.03841356 3.90271467 301.88218607 2.62921751 304 1 C306.26171875 0.92578125 306.26171875 0.92578125 308.6875 1.3125 C309.49574219 1.43238281 310.30398438 1.55226563 311.13671875 1.67578125 C311.75160156 1.78277344 312.36648438 1.88976562 313 2 C312.44922191 6.7830729 311.47450313 10.8939857 309.71484375 15.37109375 C309.26689453 16.52158203 308.81894531 17.67207031 308.35742188 18.85742188 C307.88884766 20.03884766 307.42027344 21.22027344 306.9375 22.4375 C306.46505859 23.64599609 305.99261719 24.85449219 305.50585938 26.09960938 C304.34388823 29.0690912 303.17510011 32.03569469 302 35 C304.80748511 32.80652305 307.47970936 30.65967334 309.8671875 28.01171875 C310.35630615 27.47393799 310.8454248 26.93615723 311.34936523 26.38208008 C311.85282471 25.82286865 312.35628418 25.26365723 312.875 24.6875 C313.94582974 23.51751036 315.01743767 22.34823244 316.08984375 21.1796875 C317.68670256 19.43535617 319.28300419 17.69051932 320.87890625 15.9453125 C324.5005301 12.15123037 328.49869031 8.91076655 332.625 5.6875 C333.17599365 5.2541333 333.7269873 4.8207666 334.29467773 4.37426758 C339.35267532 0.50889901 343.53455624 -1.71838264 350 -1 C352.55146677 2.82720015 352.43512537 4.4311836 352 9 C350.40888963 14.33545993 347.8983746 19.24744145 345.36572266 24.18847656 C340.75435111 33.18804965 336.84044703 41.65321967 338 52 C338.80943091 54.09843966 338.80943091 54.09843966 340.625 54.875 C346.6414125 55.19165329 352.55696096 49.13659697 356.875 45.375 C357.47924805 44.85301025 358.08349609 44.33102051 358.70605469 43.79321289 C364.78480296 38.4552817 370.49636486 32.75545272 375 26 C376.32 26.33 377.64 26.66 379 27 C374.65843101 39.18648327 360.66224989 53.39468171 349 59 C343.58727948 61.52593624 337.87335196 61.71626243 332 61 C328.57530644 59.18281566 327.43689682 57.8142168 325.625 54.4375 C323.67829116 43.73060139 327.70504049 34.57616898 332 25 C332.28665527 24.36046387 332.57331055 23.72092773 332.86865234 23.06201172 C334.54096516 19.35639391 336.25405455 15.67143847 338 12 C323.05931791 18.89736265 312.8495231 33.85929874 303.49145508 46.8684082 C298.89144826 53.16363544 293.86772331 59.87358829 286 62 C284.68 62 283.36 62 282 62 C282.64916463 55.99522721 284.85795003 50.599219 287 45 C286.67 44.67 286.34 44.34 286 44 C285.47792969 44.56847656 284.95585938 45.13695312 284.41796875 45.72265625 C276.82381684 53.6892009 268.53245397 61.00518229 257.125 61.375 C252.76629664 61.3486475 251.43246499 61.31374911 247.8125 58.6875 C245.27843281 54.93009003 244.86250249 52.2428667 244.875 47.8125 C244.87242187 46.91144531 244.86984375 46.01039062 244.8671875 45.08203125 C245.02833903 41.34236788 245.49800846 37.70915969 246 34 C245.42668945 34.63446045 245.42668945 34.63446045 244.84179688 35.28173828 C243.06831703 37.23608746 241.28427538 39.18050398 239.5 41.125 C238.89929687 41.79015625 238.29859375 42.4553125 237.6796875 43.140625 C231.41854932 49.93462601 223.23578031 57.90292258 213.70703125 59.34765625 C208.76075682 59.53821624 205.17119021 58.84399333 201 56 C197.72123809 52.57220346 195.46380173 49.52447806 194 45 C193.62230469 45.40089844 193.24460937 45.80179688 192.85546875 46.21484375 C182.53210996 56.87667332 172.02704498 66.83487518 156.6875 67.375 C146.85670742 67.19523694 139.73582789 63.08348503 131.54296875 57.9765625 C129.01042342 56.71453202 129.01042342 56.71453202 126.35546875 57.734375 C124.60070695 58.67723209 122.859184 59.64480904 121.125 60.625 C117.52488342 62.20905129 114.89166046 62.23349963 111 62 C109.66694462 58.3340977 109.98387339 57.03741374 111.5625 53.375 C113.88022427 49.79306249 115.82355923 48.26784809 120 47 C121.95940411 47.05243476 123.91803485 47.13908888 125.875 47.25 C130.38592881 47.35555129 132.72113596 47.08585078 136.125 44.0625 C137.43056245 42.72172529 138.72131823 41.36643444 140 40 C141.65444399 38.48652953 143.32171589 36.98699033 145 35.5 C145.84304688 34.73816406 146.68609375 33.97632813 147.5546875 33.19140625 C149.72396899 31.24736964 151.91743596 29.3377365 154.125 27.4375 C161.45424045 21.44755249 161.45424045 21.44755249 167 14 C163.3427859 13.27138675 159.6777135 12.61675941 156 12 C155.05511719 11.83628906 154.11023438 11.67257813 153.13671875 11.50390625 C146.4123881 10.58133189 141.70417336 11.20074538 136 15 C130.19237303 19.64377387 125.86473961 25.66178977 121.34594727 31.50219727 C99.67590691 59.32980422 99.67590691 59.32980422 84.18359375 61.37109375 C79.63535745 61.48107955 76.85244721 61.53930334 72.9375 59.0625 C68.26318632 51.6740687 68.83655872 44.41136601 70 36 C69.45472656 36.76183594 68.90945313 37.52367187 68.34765625 38.30859375 C55.06076511 56.50141393 55.06076511 56.50141393 47 59 C41.08604474 59.80454868 36.23750266 58.97818779 31 56 C26.68718358 52.0368714 25.92128527 47.56407812 25 42 C24.113125 42.94875 23.22625 43.8975 22.3125 44.875 C18.8867861 48.29372265 15.24327818 51.33359342 11.4375 54.3125 C10.89585205 54.74481934 10.3542041 55.17713867 9.79614258 55.62255859 C3.0056814 60.8472556 -3.624481 61.97033452 -12 61 C-15.33551645 59.50242119 -16.44792328 58.37215184 -17.8046875 55 C-19.78832009 47.55525547 -18.39560779 40.45039851 -17 33 C-17.81791016 33.92619141 -17.81791016 33.92619141 -18.65234375 34.87109375 C-39.21193959 57.96110139 -39.21193959 57.96110139 -50.015625 59.23828125 C-55.94156563 59.43512194 -59.21483459 58.56541736 -64 55 C-67.65221077 50.77112437 -69.35048761 46.59778777 -69 41 C-66.66306717 28.26699217 -54.54508509 18.48726013 -44.43969727 11.47460938 C-31.23766448 2.68898602 -16.11748515 -6.44699406 0 0 Z M71 32 C72 34 72 34 72 34 Z " fill="#FFFFFF" transform="translate(841,72)"/>
<path d="M0 0 C3.16139372 2.31321492 3.72608104 4.11111466 4.5625 7.875 C3.428125 7.895625 2.29375 7.91625 1.125 7.9375 C-8.05090348 9.16310398 -14.23692498 17.40491997 -19.73046875 24.1875 C-25.1625607 31.37325943 -29.76882955 39.18172741 -34.4375 46.875 C-33.44290771 46.70109741 -33.44290771 46.70109741 -32.42822266 46.52368164 C-10.01472362 42.65000643 -10.01472362 42.65000643 0.9375 42.0625 C2.04037354 42.00171265 2.04037354 42.00171265 3.16552734 41.93969727 C6.29099833 41.81099262 8.56636513 41.87628838 11.5625 42.875 C10.62447594 45.26205666 10.0885869 46.59294049 7.78613281 47.82739258 C0.16447179 49.94096933 -7.56983884 51.13457078 -15.38867188 52.23754883 C-17.69802665 52.563988 -20.00524823 52.90318552 -22.3125 53.24414062 C-23.79676686 53.4590814 -25.28113856 53.67329977 -26.765625 53.88671875 C-27.44699524 53.98667648 -28.12836548 54.08663422 -28.8303833 54.18962097 C-32.73056074 54.7338649 -36.50102749 54.97146722 -40.4375 54.875 C-40.6540625 55.63167969 -40.870625 56.38835937 -41.09375 57.16796875 C-43.35677858 63.41103307 -46.47435917 69.27067016 -49.44921875 75.20117188 C-52.33185196 81.086226 -54.31235375 86.41210636 -55.4375 92.875 C-51.58841628 92.08768742 -50.20485502 90.86237243 -47.6875 87.8125 C-47.07390625 87.07902344 -46.4603125 86.34554687 -45.828125 85.58984375 C-45.36921875 85.02394531 -44.9103125 84.45804687 -44.4375 83.875 C-43.1175 84.205 -41.7975 84.535 -40.4375 84.875 C-51.36316628 102.57017133 -51.36316628 102.57017133 -56.4375 103.875 C-63.59464286 103.71785714 -63.59464286 103.71785714 -66.4375 100.875 C-66.4375 86.48154157 -57.92461956 72.32325645 -51.4375 59.875 C-50.7674428 58.54336733 -50.09876314 57.21102144 -49.4375 55.875 C-50.05238281 55.89820313 -50.66726563 55.92140625 -51.30078125 55.9453125 C-52.10902344 55.96335938 -52.91726563 55.98140625 -53.75 56 C-54.55050781 56.02320313 -55.35101562 56.04640625 -56.17578125 56.0703125 C-58.4375 55.875 -58.4375 55.875 -61.4375 53.875 C-61.625 50.75 -61.625 50.75 -61.4375 47.875 C-56.5563472 44.68730838 -53.45210903 43.08061768 -47.4375 43.875 C-45 45.375 -45 45.375 -43.4375 46.875 C-43.1796875 46.02550781 -42.921875 45.17601562 -42.65625 44.30078125 C-41.36783345 40.67917446 -39.73607418 37.45768982 -37.9375 34.0625 C-35.88384914 30.11496703 -34.10642831 26.42706608 -33.375 22 C-31.849992 13.08201842 -23.34877175 6.01415079 -16.4375 0.875 C-11.10260745 -2.23055076 -5.74986538 -1.88177413 0 0 Z " fill="#FFFFFF" transform="translate(760.4375,33.125)"/>
<path d="M0 0 C14.03028155 2.26735479 14.03028155 2.26735479 28.1328125 4.00390625 C29.73987061 4.17128296 29.73987061 4.17128296 31.37939453 4.34204102 C34.93493254 3.98003755 35.85327304 2.72977543 38.125 0.0625 C41.59498729 -2.25082486 43.05009248 -2.27707563 47.125 -1.9375 C48.115 -1.2775 49.105 -0.6175 50.125 0.0625 C50.03012474 2.74896784 49.58316516 4.53960325 47.79443359 6.58105469 C46.00178101 8.24466116 44.17387025 9.85112616 42.3125 11.4375 C34.53599202 18.08767755 34.53599202 18.08767755 30.69921875 27.390625 C30.88151792 30.48342464 31.14091992 33.11025977 32.125 36.0625 C30.805 36.3925 29.485 36.7225 28.125 37.0625 C25.10975094 33.74332663 24.69289448 31.43965467 24.6875 27 C24.66816406 25.95714844 24.64882813 24.91429687 24.62890625 23.83984375 C25.09137483 20.31852784 25.91951595 17.63205258 27.15600586 14.32641602 C27.52277939 13.33956314 27.88955292 12.35271027 28.2674408 11.33595276 C28.55043533 10.58571335 28.83342987 9.83547394 29.125 9.0625 C21.65968324 8.57581406 14.19306331 8.11506844 6.72509766 7.67089844 C4.19381931 7.51744872 1.66287125 7.35843094 -0.86767578 7.19335938 C-27.54165275 5.46087137 -59.99732899 4.35423531 -81.7421875 22.8828125 C-86.25948167 27.49938786 -89.875 33.45363028 -89.875 40.0625 C-88.22003085 46.04585 -83.96651538 48.33172863 -78.95703125 51.44921875 C-78.26996094 51.98160156 -77.58289063 52.51398438 -76.875 53.0625 C-76.875 54.0525 -76.875 55.0425 -76.875 56.0625 C-83.39384124 55.79088161 -87.07719965 53.39095032 -91.875 49.0625 C-95.94916218 44.57047503 -97.13530435 41.41261749 -97.0234375 35.3046875 C-96.40357047 25.94143294 -93.13481561 18.9052254 -86.3125 12.4375 C-62.66266517 -6.96862615 -28.22938971 -4.62505014 0 0 Z " fill="#FFFFFF" transform="translate(762.875,16.9375)"/>
</svg>
